<svg width="96" height="96" viewBox="0 0 96 96" fill="none" xmlns="http://www.w3.org/2000/svg">
<path d="M48 35.5032C41.1187 35.5032 35.5031 41.1188 35.5031 48.0001C35.5031 54.8813 41.1187 60.4969 48 60.4969C54.8812 60.4969 60.4968 54.8813 60.4968 48.0001C60.4968 41.1188 54.8812 35.5032 48 35.5032ZM85.4812 48.0001C85.4812 42.8251 85.5281 37.6969 85.2375 32.5313C84.9468 26.5313 83.5781 21.2063 79.1906 16.8188C74.7937 12.4219 69.4781 11.0626 63.4781 10.7719C58.3031 10.4813 53.175 10.5282 48.0093 10.5282C42.8343 10.5282 37.7062 10.4813 32.5406 10.7719C26.5406 11.0626 21.2156 12.4313 16.8281 16.8188C12.4312 21.2157 11.0718 26.5313 10.7812 32.5313C10.4906 37.7063 10.5375 42.8344 10.5375 48.0001C10.5375 53.1657 10.4906 58.3032 10.7812 63.4688C11.0718 69.4688 12.4406 74.7938 16.8281 79.1813C21.225 83.5782 26.5406 84.9376 32.5406 85.2282C37.7156 85.5188 42.8437 85.4719 48.0093 85.4719C53.1843 85.4719 58.3125 85.5188 63.4781 85.2282C69.4781 84.9376 74.8031 83.5688 79.1906 79.1813C83.5875 74.7844 84.9468 69.4688 85.2375 63.4688C85.5375 58.3032 85.4812 53.1751 85.4812 48.0001ZM48 67.2282C37.3593 67.2282 28.7718 58.6407 28.7718 48.0001C28.7718 37.3594 37.3593 28.7719 48 28.7719C58.6406 28.7719 67.2281 37.3594 67.2281 48.0001C67.2281 58.6407 58.6406 67.2282 48 67.2282ZM68.0156 32.4751C65.5312 32.4751 63.525 30.4688 63.525 27.9844C63.525 25.5001 65.5312 23.4938 68.0156 23.4938C70.5 23.4938 72.5062 25.5001 72.5062 27.9844C72.507 28.5744 72.3913 29.1586 72.1659 29.7038C71.9405 30.249 71.6097 30.7443 71.1926 31.1614C70.7754 31.5786 70.2801 31.9093 69.7349 32.1347C69.1898 32.3601 68.6055 32.4758 68.0156 32.4751Z" fill="#4A4D5E"/>
</svg>
